Info:-

Format : Matroska
File size : 895 MiB
Duration : 2h 23mn
Overall bit rate : 873 Kbps
Movie name : Blood Diamond [2006] 720P BRRip Hindi P M
Encoded date : UTC 2012-01-16 22:20:15
Writing application : mkvmerge v4.6.0 ('Still Crazy After All These Years') built on Mar 10 2011 02:50:32
Writing library : libebml v1.2.0 + libmatroska v1.1.0

Video
ID : 1
Format : AVC
Format/Info : Advanced Video Codec
Format profile : High@L4.0
Format settings, CABAC : Yes
Format settings, ReFrames : 3 frames
Codec ID : V_MPEG4/ISO/AVC
Duration : 2h 23mn
Bit rate mode : Variable
Bit rate : 700 Kbps
Maximum bit rate : 25.0 Mbps
Width : 1 280 pixels
Height : 528 pixels
Display aspect ratio : 2.40:1
Frame rate : 23.976 fps
Color space : YUV
Chroma subsampling : 4:2:0
Bit depth : 8 bits
Scan type : Progressive
Bits/(Pixel*Frame) : 0.043
Stream size : 701 MiB (78%)
Writing library : x264 core 114 r1924 08d04a4


Audio
ID : 2
Format : MPEG Audio
Format version : Version 1
Format profile : Layer 3
Mode : Joint stereo
Mode extension : MS Stereo
Codec ID : A_MPEG/L3
Codec ID/Hint : MP3
Duration : 2h 23mn
Bit rate mode : Variable
Bit rate : 172 Kbps
Minimum bit rate : 32.0 Kbps
Channel(s) : 2 channels
Sampling rate : 48.0 KHz
Compression mode : Lossy
Stream size : 176 MiB (20%)
Writing library : LAME3.98r
Encoding settings : -m j -V 0 -q 3 -lowpass 19.5 --vbr-old -b 32
Language : Hindi



Screenshots:-

[img]http://www.imagebam.com/image/92766c174207976[/img]

[img]http://www.imagebam.com/image/5f6e3f174208056[/img]

[img]http://www.imagebam.com/image/efb1ae174208163[/img]

[img]http://www.imagebam.com/image/a40681174207877[/img]


Sample Included plz Comment on A/V Quality..
Regards:-Abhinav4u